HIERARCHY
ROOT Hips
{
  OFFSET -4.35178 90.3298 111.633
  CHANNELS 6 Xposition Yposition Zposition Zrotation Xrotation Yrotation
  JOINT LeftUpLeg
  {
    OFFSET 0.103456 1.85784 10.5485
    CHANNELS 6 Xposition Yposition Zposition Zrotation Xrotation Yrotation
    JOINT LeftLeg
    {
      OFFSET 43.5 -4.2e-05 0
      CHANNELS 6 Xposition Yposition Zposition Zrotation Xrotation Yrotation
      JOINT LeftFoot
      {
        OFFSET 42.3722 1.9e-05 0
        CHANNELS 6 Xposition Yposition Zposition Zrotation Xrotation Yrotation
        JOINT LeftToe
        {
          OFFSET 17.3 0 0
          CHANNELS 6 Xposition Yposition Zposition Zrotation Xrotation Yrotation
          End Site
          {
            OFFSET 0 0 0
          }
        }
      }
    }
  }
  JOINT RightUpLeg
  {
    OFFSET 0.103456 1.85782 -10.5485
    CHANNELS 6 Xposition Yposition Zposition Zrotation Xrotation Yrotation
    JOINT RightLeg
    {
      OFFSET 43.5 -2.7e-05 0
      CHANNELS 6 Xposition Yposition Zposition Zrotation Xrotation Yrotation
      JOINT RightFoot
      {
        OFFSET 42.3723 0 0
        CHANNELS 6 Xposition Yposition Zposition Zrotation Xrotation Yrotation
        JOINT RightToe
        {
          OFFSET 17.3 0 1.7e-05
          CHANNELS 6 Xposition Yposition Zposition Zrotation Xrotation Yrotation
          End Site
          {
            OFFSET 0 0 0
          }
        }
      }
    }
  }
  JOINT Spine
  {
    OFFSET 6.90197 -2.60373 0
    CHANNELS 6 Xposition Yposition Zposition Zrotation Xrotation Yrotation
    JOINT Spine1
    {
      OFFSET 12.5881 0 0
      CHANNELS 6 Xposition Yposition Zposition Zrotation Xrotation Yrotation
      JOINT Spine2
      {
        OFFSET 12.3432 -1.8e-05 0
        CHANNELS 6 Xposition Yposition Zposition Zrotation Xrotation Yrotation
        JOINT Neck
        {
          OFFSET 25.8329 2.3e-05 0
          CHANNELS 6 Xposition Yposition Zposition Zrotation Xrotation Yrotation
          JOINT Head
          {
            OFFSET 11.7666 0 0
            CHANNELS 6 Xposition Yposition Zposition Zrotation Xrotation Yrotation
            End Site
            {
              OFFSET 0 0 0
            }
          }
        }
        JOINT LeftShoulder
        {
          OFFSET 19.7459 -1.48035 6.0001
          CHANNELS 6 Xposition Yposition Zposition Zrotation Xrotation Yrotation
          JOINT LeftArm
          {
            OFFSET 11.2841 1.8e-05 -2e-05
            CHANNELS 6 Xposition Yposition Zposition Zrotation Xrotation Yrotation
            JOINT LeftForeArm
            {
              OFFSET 33 -1.3e-05 1.9e-05
              CHANNELS 6 Xposition Yposition Zposition Zrotation Xrotation Yrotation
              JOINT LeftHand
              {
                OFFSET 25.2 3.2e-05 1.1e-05
                CHANNELS 6 Xposition Yposition Zposition Zrotation Xrotation Yrotation
                End Site
                {
                  OFFSET 0 0 0
                }
              }
            }
          }
        }
        JOINT RightShoulder
        {
          OFFSET 19.7461 -1.48036 -6.00008
          CHANNELS 6 Xposition Yposition Zposition Zrotation Xrotation Yrotation
          JOINT RightArm
          {
            OFFSET 11.2841 0 0
            CHANNELS 6 Xposition Yposition Zposition Zrotation Xrotation Yrotation
            JOINT RightForeArm
            {
              OFFSET 33.0001 1.6e-05 0
              CHANNELS 6 Xposition Yposition Zposition Zrotation Xrotation Yrotation
              JOINT RightHand
              {
                OFFSET 25.1998 0.000123 0.000432
                CHANNELS 6 Xposition Yposition Zposition Zrotation Xrotation Yrotation
                End Site
                {
                  OFFSET 0 0 0
                }
              }
            }
          }
        }
      }
    }
  }
}
MOTION
Frames:	7
Frame Time:	0.0333333
15.767 91.9906 0.46465 25.2358 84.5515 66.3907 0.103456 1.85784 10.5485 10.2289 3.89994 -179.016 43.5 -4.2e-05 1e-05 -6.20361 -9.81653 -1.99501 42.3722 1.9e-05 0 74.6165 -6.50594 5.17286 17.3 8.88178e-16 3e-06 21.4546 -1e-06 0.003093 0.103456 1.85782 -10.5485 3.72344 -10.212 173.47 43.5 -2.7e-05 4e-06 -16.3449 9.69832 2.02037 42.3723 1.77636e-15 1e-05 80.0882 7.13162 -4.09662 17.3 -6e-06 1.7e-05 21.4546 -1.9e-05 -0.003116 6.90197 -2.60373 -3e-06 7.01807 0.196765 -0.316667 12.5881 1e-05 8e-06 4.02003 0.402839 -0.634689 12.3432 -1.8e-05 -5e-06 3.69764 0.421197 -0.644291 25.8329 2.3e-05 7e-06 6.24106 0.513645 -7.24102 11.7666 -8e-06 -6e-06 -18.3213 -4.02211 12.7049 19.7459 -1.48035 6.0001 176.392 -3.27343 -92.912 11.2841 1.8e-05 -2e-05 5.70015 -14.7837 14.1871 33 -1.3e-05 1.9e-05 -23.4216 0.427659 -17.0564 25.2 3.2e-05 1.1e-05 11.7786 30.3737 -3.03763 19.7461 -1.48036 -6.00008 177.264 9.33301 90.7546 11.2841 3.55271e-15 -1e-06 -4.3644 7.03425 -10.8567 33.0001 1.6e-05 -1e-06 -24.7172 -2.79756 16.2817 25.1998 0.000123 0.000432 7.62547 -15.1677 3.34705 
15.9461 91.9866 0.658683 27.3922 84.447 64.298 0.103456 1.85784 10.5485 10.3237 4.00798 -179.208 43.5 -4.2e-05 1e-05 -6.39549 -9.86844 -2.00899 42.3722 1.9e-05 0 75.0055 -6.54433 5.13498 17.3 0 3e-06 21.4546 -1e-06 0.003093 0.103456 1.85782 -10.5485 3.33835 -10.0152 173.215 43.5 -2.7e-05 4e-06 -17.302 9.79284 2.05454 42.3723 1.77636e-15 1e-05 80.571 7.26842 -4.12579 17.3 -6e-06 1.7e-05 21.4546 -1.9e-05 -0.003116 6.90197 -2.60373 -3e-06 7.05704 0.188775 -0.316667 12.5881 1e-05 8e-06 4.09814 0.387222 -0.634688 12.3432 -1.8e-05 -5e-06 3.77602 0.406516 -0.647595 25.8329 2.3e-05 7e-06 6.1507 0.411484 -7.17427 11.7666 -8e-06 -6e-06 -17.66 -4.16535 12.7334 19.7459 -1.48035 6.0001 176.341 -3.33103 -92.7926 11.2841 1.8e-05 -2e-05 5.97173 -14.8749 14.2772 33 -1.3e-05 1.9e-05 -23.9859 0.444777 -16.991 25.2 3.2e-05 1.1e-05 11.5181 30.3732 -3.09966 19.7461 -1.48036 -6.00008 177.338 9.29331 90.5253 11.2841 -3.55271e-15 -1e-06 -4.17191 7.00033 -10.8253 33.0001 1.6e-05 -1e-06 -26.0778 -2.8258 16.6936 25.1998 0.000123 0.000432 7.41346 -15.148 3.4451 
16.1518 91.9281 0.909281 30.147 84.2678 61.5993 0.103456 1.85784 10.5485 10.5111 4.01362 -179.439 43.5 -4.2e-05 1e-05 -6.57687 -9.96684 -1.998 42.3722 1.9e-05 0 75.4278 -6.63883 5.23625 17.3 -8.88178e-16 3e-06 21.4546 -1e-06 0.003093 0.103456 1.85782 -10.5485 2.80185 -9.75245 172.964 43.5 -2.7e-05 4e-06 -18.6517 9.919 2.05993 42.3723 -1.77636e-15 1e-05 81.0852 7.33545 -4.26761 17.3 -6e-06 1.7e-05 21.4546 -1.9e-05 -0.003116 6.90197 -2.60373 -3e-06 7.11383 0.174127 -0.311564 12.5881 1e-05 8e-06 4.2119 0.359686 -0.622497 12.3432 -1.8e-05 -5e-06 3.89013 0.381502 -0.633519 25.8329 2.3e-05 7e-06 5.98538 0.121558 -7.01275 11.7666 -8e-06 -6e-06 -16.7271 -4.51115 12.6749 19.7459 -1.48035 6.0001 176.25 -3.43612 -92.6282 11.2841 1.8e-05 -2e-05 6.47748 -15.1318 14.543 33 -1.3e-05 1.9e-05 -25.0314 0.453928 -16.8694 25.2 3.2e-05 1.1e-05 11.1344 30.3571 -3.19171 19.7461 -1.48036 -6.00008 177.513 9.19613 90.1977 11.2841 0 -1e-06 -3.94645 6.87116 -10.8439 33.0001 1.6e-05 -1e-06 -28.0389 -2.91926 17.2226 25.1998 0.000123 0.000432 7.01278 -15.0828 3.51938 
16.3864 91.873 1.20568 32.5029 84.0713 59.3271 0.103456 1.85784 10.5485 10.712 4.11887 -179.711 43.5 -4.2e-05 1e-05 -6.78372 -10.0405 -2.004 42.3722 1.9e-05 -3.55271e-15 75.7144 -6.58847 5.28155 17.3 -8.88178e-16 3e-06 21.4546 -1e-06 0.003093 0.103456 1.85782 -10.5485 2.14913 -9.35947 172.674 43.5 -2.7e-05 4e-06 -20.3104 10.0687 2.06171 42.3723 -1.77636e-15 1e-05 81.5514 7.4333 -4.54011 17.3 -6e-06 1.7e-05 21.4546 -1.9e-05 -0.003116 6.90197 -2.60373 -3e-06 7.17775 0.141138 -0.300158 12.5881 1e-05 8e-06 4.34031 0.29655 -0.595178 12.3432 -1.8e-05 -5e-06 4.01935 0.322124 -0.60213 25.8329 2.3e-05 7e-06 5.74797 -0.36669 -6.73402 11.7666 -8e-06 -6e-06 -15.4189 -5.07166 12.5203 19.7459 -1.48035 6.0001 176.14 -3.60181 -92.4168 11.2841 1.8e-05 -2e-05 7.04049 -15.5068 15.0392 33 -1.3e-05 1.9e-05 -26.55 0.549745 -16.6949 25.2 3.2e-05 1.1e-05 10.5304 30.3721 -3.31173 19.7461 -1.48036 -6.00008 177.797 9.03194 89.7616 11.2841 -3.55271e-15 -1e-06 -3.71517 6.58546 -10.9259 33.0001 1.6e-05 -1e-06 -30.5873 -2.94581 17.7895 25.1998 0.000123 0.000432 6.4846 -14.9157 3.57782 
16.6407 91.8151 1.5601 34.3233 83.8922 57.6069 0.103456 1.85784 10.5485 10.9492 4.26474 179.997 43.5 -4.2e-05 1e-05 -6.96953 -10.091 -2.01702 42.3722 1.9e-05 0 75.9668 -6.49548 5.27875 17.3 8.88178e-16 3e-06 21.4546 -1e-06 0.003093 0.103456 1.85782 -10.5485 1.37226 -8.79728 172.394 43.5 -2.7e-05 4e-06 -22.2505 10.2479 2.03427 42.3723 0 1e-05 81.8852 7.52077 -5.00649 17.3 -6e-06 1.7e-05 21.4546 -1.9e-05 -0.003116 6.90197 -2.60373 -3e-06 7.25347 0.0779887 -0.276511 12.5881 1e-05 8e-06 4.49254 0.175231 -0.539111 12.3432 -1.8e-05 -5e-06 4.17318 0.206821 -0.538393 25.8329 2.3e-05 7e-06 5.45493 -0.962275 -6.38645 11.7666 -8e-06 -6e-06 -13.8991 -5.7589 12.3475 19.7459 -1.48035 6.0001 176.04 -3.80247 -92.1933 11.2841 1.8e-05 -2e-05 7.95968 -16.1656 16.0919 33 -1.3e-05 1.9e-05 -28.9116 0.655202 -16.3769 25.2 3.2e-05 1.1e-05 9.687 30.3732 -3.47073 19.7461 -1.48036 -6.00008 178.139 8.83767 89.2423 11.2841 3.55271e-15 -1e-06 -3.48685 6.28629 -11.2142 33.0001 1.6e-05 -1e-06 -33.7775 -3.06861 18.4316 25.1998 0.000123 0.000432 5.82711 -14.7131 3.63327 
16.9299 91.7623 1.93493 36.1315 83.7124 55.918 0.103456 1.85784 10.5485 11.1992 4.42387 179.657 43.5 -4.2e-05 1e-05 -7.1479 -10.1595 -2.02635 42.3722 1.9e-05 0 76.2829 -6.3675 5.26911 17.3 0 3e-06 21.4546 -1e-06 0.003093 0.103456 1.85782 -10.5485 0.367422 -8.09219 172.045 43.5 -2.7e-05 4e-06 -24.7071 10.4018 2.07502 42.3723 0 1e-05 82.1079 7.65848 -5.57004 17.3 -6e-06 1.7e-05 21.4546 -1.9e-05 -0.003116 6.90197 -2.60373 -3e-06 7.35354 0.00685571 -0.267758 12.5881 1e-05 8e-06 4.69388 0.03637 -0.511357 12.3432 -1.8e-05 -5e-06 4.37647 0.073014 -0.501787 25.8329 2.3e-05 7e-06 5.10756 -1.51542 -5.97809 11.7666 -8e-06 -6e-06 -12.1822 -6.51069 12.3666 19.7459 -1.48035 6.0001 176.008 -4.08624 -91.7944 11.2841 1.8e-05 -2e-05 8.8386 -16.6541 17.269 33 -1.3e-05 1.9e-05 -32.0873 0.7286 -15.7401 25.2 3.2e-05 1.1e-05 8.42824 30.3771 -3.4949 19.7461 -1.48036 -6.00008 178.557 8.69452 88.7041 11.2841 -3.55271e-15 -1e-06 -3.11509 6.36565 -12.2743 33.0001 1.6e-05 -1e-06 -37.9313 -3.16475 19.1968 25.1998 0.000123 0.000432 4.93136 -14.3978 3.80185 
17.2646 91.6427 2.29533 38.654 83.5152 53.5879 0.103456 1.85784 10.5485 11.4431 4.70326 179.22 43.5 -4.2e-05 1e-05 -7.30387 -10.215 -2.03567 42.3722 1.9e-05 -3.55271e-15 76.6615 -6.26729 5.14797 17.3 -8.88178e-16 3e-06 21.4546 -1e-06 0.003093 0.103456 1.85782 -10.5485 -1.29902 -7.10339 171.434 43.5 -2.7e-05 4e-06 -28.3894 10.4978 2.43372 42.3723 1.77636e-15 1e-05 82.3437 7.74982 -6.33342 17.3 -6e-06 1.7e-05 21.4546 -1.9e-05 -0.003116 6.90197 -2.60373 -3e-06 7.4755 -0.0754629 -0.251237 12.5881 1e-05 8e-06 4.93933 -0.123182 -0.466207 12.3432 -1.8e-05 -5e-06 4.62412 -0.0797298 -0.446439 25.8329 2.3e-05 7e-06 4.73896 -2.04587 -5.56764 11.7666 -8e-06 -6e-06 -10.5445 -7.22396 12.3763 19.7459 -1.48035 6.0001 176.045 -4.394 -91.4429 11.2841 1.8e-05 -2e-05 10.1403 -17.5309 19.492 33 -1.3e-05 1.9e-05 -36.0097 0.653044 -14.8563 25.2 3.2e-05 1.1e-05 7.08881 30.3427 -3.54552 19.7461 -1.48036 -6.00008 179.026 8.52806 88.0536 11.2841 3.55271e-15 -1e-06 -2.73515 6.41443 -13.6274 33.0001 1.6e-05 -1e-06 -42.9765 -3.06127 19.8452 25.1998 0.000123 0.000432 3.65737 -13.795 3.84331 
